<svg width="178" height="45" viewBox="0 0 178 45" fill="none" xmlns="http://www.w3.org/2000/svg">
<path d="M22.5 41.25C17.4688 36.9688 13.7112 32.9925 11.2275 29.3212C8.74375 25.65 7.50125 22.2512 7.5 19.125C7.5 14.4375 9.00813 10.7031 12.0244 7.92188C15.0406 5.14062 18.5325 3.75 22.5 3.75C26.4688 3.75 29.9612 5.14062 32.9775 7.92188C35.9937 10.7031 37.5012 14.4375 37.5 19.125C37.5 22.25 36.2575 25.6487 33.7725 29.3212C31.2875 32.9937 27.53 36.97 22.5 41.25ZM16.875 24.375H20.625V19.2188H24.375V24.375H28.125V15.4688L22.5 11.7188L16.875 15.4688V24.375Z" fill="#2563eb"/>
<path d="M52.517 31.5V14.0455H64.2784V17.0881H56.2074V21.2472H63.6733V24.2898H56.2074V28.4574H64.3125V31.5H52.517ZM70.1783 18.4091L72.5817 22.9858L75.0447 18.4091H78.7692L74.9766 24.9545L78.8714 31.5H75.1641L72.5817 26.9744L70.0419 31.5H66.2919L70.1783 24.9545L66.4283 18.4091H70.1783ZM86.3714 31.7557C85.0305 31.7557 83.8771 31.4716 82.9112 30.9034C81.951 30.3295 81.2124 29.5341 80.6953 28.517C80.1839 27.5 79.9283 26.3295 79.9283 25.0057C79.9283 23.6648 80.1868 22.4886 80.7038 21.4773C81.2266 20.4602 81.968 19.6676 82.9283 19.0994C83.8885 18.5256 85.0305 18.2386 86.3544 18.2386C87.4964 18.2386 88.4964 18.446 89.3544 18.8608C90.2124 19.2756 90.8913 19.858 91.3913 20.608C91.8913 21.358 92.1669 22.2386 92.218 23.25H88.7919C88.6953 22.5966 88.4396 22.071 88.0249 21.6733C87.6158 21.2699 87.0788 21.0682 86.4141 21.0682C85.8516 21.0682 85.3601 21.2216 84.9396 21.5284C84.5249 21.8295 84.201 22.2699 83.968 22.8494C83.7351 23.429 83.6186 24.1307 83.6186 24.9545C83.6186 25.7898 83.7322 26.5 83.9595 27.0852C84.1925 27.6705 84.5192 28.1165 84.9396 28.4233C85.3601 28.7301 85.8516 28.8835 86.4141 28.8835C86.8288 28.8835 87.201 28.7983 87.5305 28.6278C87.8658 28.4574 88.1413 28.2102 88.3572 27.8864C88.5788 27.5568 88.7237 27.1619 88.7919 26.7017H92.218C92.1612 27.7017 91.8885 28.5824 91.3999 29.3438C90.9169 30.0994 90.2493 30.6903 89.397 31.1165C88.5447 31.5426 87.5362 31.7557 86.3714 31.7557ZM100.509 31.7557C99.1619 31.7557 98.0028 31.483 97.0312 30.9375C96.0653 30.3864 95.321 29.608 94.7983 28.6023C94.2756 27.5909 94.0142 26.3949 94.0142 25.0142C94.0142 23.6676 94.2756 22.4858 94.7983 21.4688C95.321 20.4517 96.0568 19.6591 97.0057 19.0909C97.9602 18.5227 99.0795 18.2386 100.364 18.2386C101.227 18.2386 102.031 18.3778 102.776 18.6562C103.526 18.929 104.179 19.3409 104.736 19.892C105.298 20.4432 105.736 21.1364 106.048 21.9716C106.361 22.8011 106.517 23.7727 106.517 24.8864V25.8835H95.4631V23.6335H103.099C103.099 23.1108 102.986 22.6477 102.759 22.2443C102.531 21.8409 102.216 21.5256 101.812 21.2983C101.415 21.0653 100.952 20.9489 100.423 20.9489C99.8722 20.9489 99.3835 21.0767 98.9574 21.3324C98.5369 21.5824 98.2074 21.9205 97.9688 22.3466C97.7301 22.767 97.608 23.2358 97.6023 23.7528V25.892C97.6023 26.5398 97.7216 27.0994 97.9602 27.571C98.2045 28.0426 98.5483 28.4062 98.9915 28.6619C99.4347 28.9176 99.9602 29.0455 100.568 29.0455C100.972 29.0455 101.341 28.9886 101.676 28.875C102.011 28.7614 102.298 28.5909 102.537 28.3636C102.776 28.1364 102.957 27.858 103.082 27.5284L106.44 27.75C106.27 28.5568 105.92 29.2614 105.392 29.8636C104.869 30.4602 104.193 30.9261 103.364 31.2614C102.54 31.5909 101.588 31.7557 100.509 31.7557ZM112.517 14.0455V31.5H108.886V14.0455H112.517ZM121.391 31.7557C120.045 31.7557 118.886 31.483 117.914 30.9375C116.948 30.3864 116.204 29.608 115.681 28.6023C115.158 27.5909 114.897 26.3949 114.897 25.0142C114.897 23.6676 115.158 22.4858 115.681 21.4688C116.204 20.4517 116.94 19.6591 117.888 19.0909C118.843 18.5227 119.962 18.2386 121.246 18.2386C122.11 18.2386 122.914 18.3778 123.658 18.6562C124.408 18.929 125.062 19.3409 125.619 19.892C126.181 20.4432 126.619 21.1364 126.931 21.9716C127.244 22.8011 127.4 23.7727 127.4 24.8864V25.8835H116.346V23.6335H123.982C123.982 23.1108 123.869 22.6477 123.641 22.2443C123.414 21.8409 123.099 21.5256 122.695 21.2983C122.298 21.0653 121.835 20.9489 121.306 20.9489C120.755 20.9489 120.266 21.0767 119.84 21.3324C119.42 21.5824 119.09 21.9205 118.852 22.3466C118.613 22.767 118.491 23.2358 118.485 23.7528V25.892C118.485 26.5398 118.604 27.0994 118.843 27.571C119.087 28.0426 119.431 28.4062 119.874 28.6619C120.317 28.9176 120.843 29.0455 121.451 29.0455C121.854 29.0455 122.224 28.9886 122.559 28.875C122.894 28.7614 123.181 28.5909 123.42 28.3636C123.658 28.1364 123.84 27.858 123.965 27.5284L127.323 27.75C127.153 28.5568 126.803 29.2614 126.275 29.8636C125.752 30.4602 125.076 30.9261 124.246 31.2614C123.423 31.5909 122.471 31.7557 121.391 31.7557ZM122.874 16.8409L121.161 14.7614L119.448 16.8409H116.354V16.7216L119.806 12.9716H122.508L125.968 16.7216V16.8409H122.874ZM133.4 23.9318V31.5H129.769V18.4091H133.229V20.7188H133.383C133.673 19.9574 134.158 19.3551 134.84 18.9119C135.522 18.4631 136.349 18.2386 137.32 18.2386C138.229 18.2386 139.022 18.4375 139.698 18.8352C140.374 19.233 140.9 19.8011 141.275 20.5398C141.65 21.2727 141.837 22.1477 141.837 23.1648V31.5H138.207V23.8125C138.212 23.0114 138.008 22.3864 137.593 21.9375C137.178 21.483 136.607 21.2557 135.88 21.2557C135.391 21.2557 134.96 21.3608 134.585 21.571C134.215 21.7812 133.925 22.0881 133.715 22.4915C133.511 22.8892 133.406 23.3693 133.4 23.9318ZM150.614 31.7557C149.273 31.7557 148.119 31.4716 147.153 30.9034C146.193 30.3295 145.455 29.5341 144.938 28.517C144.426 27.5 144.17 26.3295 144.17 25.0057C144.17 23.6648 144.429 22.4886 144.946 21.4773C145.469 20.4602 146.21 19.6676 147.17 19.0994C148.131 18.5256 149.273 18.2386 150.597 18.2386C151.739 18.2386 152.739 18.446 153.597 18.8608C154.455 19.2756 155.134 19.858 155.634 20.608C156.134 21.358 156.409 22.2386 156.46 23.25H153.034C152.938 22.5966 152.682 22.071 152.267 21.6733C151.858 21.2699 151.321 21.0682 150.656 21.0682C150.094 21.0682 149.602 21.2216 149.182 21.5284C148.767 21.8295 148.443 22.2699 148.21 22.8494C147.977 23.429 147.861 24.1307 147.861 24.9545C147.861 25.7898 147.974 26.5 148.202 27.0852C148.435 27.6705 148.761 28.1165 149.182 28.4233C149.602 28.7301 150.094 28.8835 150.656 28.8835C151.071 28.8835 151.443 28.7983 151.773 28.6278C152.108 28.4574 152.384 28.2102 152.599 27.8864C152.821 27.5568 152.966 27.1619 153.034 26.7017H156.46C156.403 27.7017 156.131 28.5824 155.642 29.3438C155.159 30.0994 154.491 30.6903 153.639 31.1165C152.787 31.5426 151.778 31.7557 150.614 31.7557ZM158.785 31.5V18.4091H162.415V31.5H158.785ZM160.609 16.7216C160.069 16.7216 159.606 16.5426 159.219 16.1847C158.839 15.821 158.648 15.3864 158.648 14.8807C158.648 14.3807 158.839 13.9517 159.219 13.5938C159.606 13.2301 160.069 13.0483 160.609 13.0483C161.148 13.0483 161.609 13.2301 161.989 13.5938C162.376 13.9517 162.569 14.3807 162.569 14.8807C162.569 15.3864 162.376 15.821 161.989 16.1847C161.609 16.5426 161.148 16.7216 160.609 16.7216ZM169.057 31.7472C168.222 31.7472 167.477 31.6023 166.824 31.3125C166.17 31.017 165.653 30.5824 165.273 30.0085C164.898 29.429 164.71 28.7074 164.71 27.8438C164.71 27.1165 164.844 26.5057 165.111 26.0114C165.378 25.517 165.741 25.1193 166.202 24.8182C166.662 24.517 167.185 24.2898 167.77 24.1364C168.361 23.983 168.98 23.875 169.628 23.8125C170.389 23.733 171.003 23.6591 171.469 23.5909C171.935 23.517 172.273 23.4091 172.483 23.267C172.693 23.125 172.798 22.9148 172.798 22.6364V22.5852C172.798 22.0455 172.628 21.6278 172.287 21.3324C171.952 21.0369 171.474 20.8892 170.855 20.8892C170.202 20.8892 169.682 21.0341 169.295 21.3239C168.909 21.608 168.653 21.9659 168.528 22.3977L165.17 22.125C165.341 21.3295 165.676 20.642 166.176 20.0625C166.676 19.4773 167.321 19.0284 168.111 18.7159C168.906 18.3977 169.827 18.2386 170.872 18.2386C171.599 18.2386 172.295 18.3239 172.96 18.4943C173.631 18.6648 174.224 18.929 174.741 19.2869C175.264 19.6449 175.676 20.1051 175.977 20.6676C176.278 21.2244 176.429 21.892 176.429 22.6705V31.5H172.986V29.6847H172.884C172.673 30.0938 172.392 30.4545 172.04 30.767C171.688 31.0739 171.264 31.3153 170.77 31.4915C170.276 31.6619 169.705 31.7472 169.057 31.7472ZM170.097 29.2415C170.631 29.2415 171.102 29.1364 171.511 28.9261C171.92 28.7102 172.241 28.4205 172.474 28.0568C172.707 27.6932 172.824 27.2812 172.824 26.821V25.4318C172.71 25.5057 172.554 25.5739 172.355 25.6364C172.162 25.6932 171.943 25.7472 171.699 25.7983C171.455 25.8437 171.21 25.8864 170.966 25.9261C170.722 25.9602 170.5 25.9915 170.301 26.0199C169.875 26.0824 169.503 26.1818 169.185 26.3182C168.866 26.4545 168.619 26.6392 168.443 26.8722C168.267 27.0994 168.179 27.3835 168.179 27.7244C168.179 28.2188 168.358 28.5966 168.716 28.858C169.08 29.1136 169.54 29.2415 170.097 29.2415Z" fill="white"/>
</svg>
