<svg width="30" height="30" viewBox="0 0 30 30" fill="none" xmlns="http://www.w3.org/2000/svg">
<g id="material-symbols:account-circle">
<path id="Vector" d="M6.09367 17.8127C6.97909 17.1357 7.96867 16.6016 9.06242 16.2107C10.1562 15.8197 11.302 15.6245 12.4999 15.6252C13.6978 15.6252 14.8437 15.8207 15.9374 16.2117C17.0312 16.6027 18.0208 17.1364 18.9062 17.8127C19.5138 17.1009 19.9871 16.2936 20.326 15.3909C20.6649 14.4881 20.8339 13.5245 20.8333 12.5002C20.8333 10.1912 20.0218 8.22489 18.3989 6.60128C16.776 4.97767 14.8096 4.16621 12.4999 4.16691C10.1909 4.16691 8.22457 4.97836 6.60096 6.60128C4.97735 8.2242 4.16589 10.1905 4.16659 12.5002C4.16659 13.5245 4.33603 14.4881 4.67492 15.3909C5.01381 16.2936 5.48672 17.1009 6.09367 17.8127ZM12.4999 13.5419C11.4756 13.5419 10.6117 13.1905 9.90825 12.4877C9.20478 11.785 8.85339 10.9211 8.85409 9.89607C8.85409 8.87177 9.20547 8.00788 9.90825 7.30441C10.611 6.60093 11.4749 6.24955 12.4999 6.25024C13.5242 6.25024 14.3881 6.60163 15.0916 7.30441C15.7951 8.00718 16.1464 8.87107 16.1458 9.89607C16.1458 10.9204 15.7944 11.7843 15.0916 12.4877C14.3888 13.1912 13.5249 13.5426 12.4999 13.5419ZM12.4999 22.9169C11.0589 22.9169 9.70478 22.6433 8.43742 22.0961C7.17006 21.5489 6.06763 20.8068 5.13013 19.87C4.19263 18.9325 3.45061 17.8301 2.90409 16.5627C2.35756 15.2954 2.08395 13.9412 2.08325 12.5002C2.08325 11.0593 2.35686 9.7051 2.90409 8.43774C3.45131 7.17038 4.19332 6.06795 5.13013 5.13045C6.06763 4.19295 7.17006 3.45093 8.43742 2.90441C9.70478 2.35788 11.0589 2.08427 12.4999 2.08357C13.9409 2.08357 15.2951 2.35718 16.5624 2.90441C17.8298 3.45163 18.9322 4.19364 19.8697 5.13045C20.8072 6.06795 21.5496 7.17038 22.0968 8.43774C22.644 9.7051 22.9173 11.0593 22.9166 12.5002C22.9166 13.9412 22.643 15.2954 22.0958 16.5627C21.5485 17.8301 20.8065 18.9325 19.8697 19.87C18.9322 20.8075 17.8298 21.5499 16.5624 22.0971C15.2951 22.6443 13.9409 22.9176 12.4999 22.9169Z" fill="#004AAD"/>
</g>
</svg>
